#
#
#

mtllib sock.mtl


#
# sock Mesh
#
g sock Mesh


#
# sock Mesh_lambert2SG
#
usemtl sock Mesh_lambert2SG

v 0.000000 7.024343 1.020645
v 0.000000 2.559731 1.417571
v 0.000000 1.914061 0.275958
v 0.000000 7.024343 -0.052180
v 0.000000 2.437185 -1.020645
v 0.000000 7.024343 -1.020645
v 0.000000 1.600187 4.752260
v 0.000000 0.937563 4.202559
v 0.000000 0.135441 3.958435
v 0.000000 0.489678 -0.098518
v 0.000000 1.251438 5.589258
v 0.000000 0.728314 5.702181
v 0.000000 0.030816 5.074436
v 0.000000 1.089075 -1.119383
vn 1.000000 0.000000 0.000000
vt 0.493100 0.128849
vt 0.500849 0.546705
vt 0.409701 0.557060
vt 0.403408 0.126570
vt 0.327637 0.526187
vt 0.328287 0.127268
vt 0.718397 0.739572
vt 0.632997 0.784140
vt 0.611588 0.859694
vt 0.346136 0.661612
vt 0.737249 0.761244
vt 0.708736 0.843197
vt 0.666537 0.861658
vt 0.302179 0.607008
f 1/1/1 2/2/1 3/3/1 4/4/1
f 4/4/1 3/3/1 5/5/1 6/6/1
f 3/3/1 2/2/1 7/7/1 8/8/1
f 3/3/1 8/8/1 9/9/1 10/10/1
f 8/8/1 7/7/1 11/11/1 12/12/1
f 9/9/1 8/8/1 12/12/1 13/13/1
f 14/14/1 5/5/1 3/3/1 10/10/1
